<?xml version="1.0" encoding="UTF-8"?>
<svg id="Ebene_1" data-name="Ebene 1" xmlns="http://www.w3.org/2000/svg" xmlns:xlink="http://www.w3.org/1999/xlink" viewBox="0 0 1366 768">
  <defs>
    <style>
      .cls-1 {
        fill: none;
        stroke: #8a1389;
        stroke-miterlimit: 10;
        stroke-width: 3px;
      }

      .cls-2 {
        fill: url(#Unbenannter_Verlauf_6);
      }

      .cls-2, .cls-3, .cls-4, .cls-5, .cls-6 {
        stroke-width: 0px;
      }

      .cls-3 {
        fill: url(#Unbenannter_Verlauf_25);
      }

      .cls-3, .cls-6 {
        opacity: .38;
      }

      .cls-4 {
        fill: url(#Unbenannter_Verlauf_15);
      }

      .cls-5 {
        fill: url(#Unbenannter_Verlauf_6-2);
      }

      .cls-7 {
        mask: url(#mask-1);
      }

      .cls-8 {
        mask: url(#mask);
      }

      .cls-6 {
        fill: url(#Unbenannter_Verlauf_25-2);
      }
    </style>
    <linearGradient id="Unbenannter_Verlauf_15" data-name="Unbenannter Verlauf 15" x1="683" y1="753.85" x2="683" y2="15" gradientUnits="userSpaceOnUse">
      <stop offset="0" stop-color="#07004c"/>
      <stop offset="0" stop-color="#07004b"/>
      <stop offset=".1" stop-color="#0c013e"/>
      <stop offset=".22" stop-color="#0f0137"/>
      <stop offset=".49" stop-color="#100235"/>
      <stop offset=".77" stop-color="#0e0137"/>
      <stop offset=".9" stop-color="#0a013e"/>
      <stop offset=".99" stop-color="#02004b"/>
      <stop offset="1" stop-color="#02004c"/>
    </linearGradient>
    <linearGradient id="Unbenannter_Verlauf_6" data-name="Unbenannter Verlauf 6" x1="414.5" y1="621.5" x2="700.71" y2="621.5" gradientTransform="translate(125.39 -519.61)" gradientUnits="userSpaceOnUse">
      <stop offset="0" stop-color="#000" stop-opacity="0"/>
      <stop offset="1" stop-color="#fff"/>
    </linearGradient>
    <mask id="mask" x="-156" y="-41.21" width="1678" height="286.21" maskUnits="userSpaceOnUse">
      <rect class="cls-2" x="539.89" y="-737.11" width="286.21" height="1678" transform="translate(581.11 784.89) rotate(-90)"/>
    </mask>
    <linearGradient id="Unbenannter_Verlauf_6-2" data-name="Unbenannter Verlauf 6" x1="986.5" y1="621.5" x2="1272.71" y2="621.5" gradientTransform="translate(-446.61 44.11)" xlink:href="#Unbenannter_Verlauf_6"/>
    <mask id="mask-1" x="-156" y="522.5" width="1678" height="286.21" maskUnits="userSpaceOnUse">
      <rect class="cls-5" x="539.89" y="-173.39" width="286.21" height="1678" transform="translate(1348.61 -17.39) rotate(90)"/>
    </mask>
    <radialGradient id="Unbenannter_Verlauf_25" data-name="Unbenannter Verlauf 25" cx="675.17" cy="33.64" fx="675.17" fy="-101.06" r="417.4" gradientTransform="translate(-380.86 57.22) scale(1.58 .24)" gradientUnits="userSpaceOnUse">
      <stop offset="0" stop-color="#641281"/>
      <stop offset=".25" stop-color="#531071" stop-opacity=".79"/>
      <stop offset=".77" stop-color="#2b0c4a" stop-opacity=".25"/>
      <stop offset="1" stop-color="#180a38" stop-opacity="0"/>
    </radialGradient>
    <radialGradient id="Unbenannter_Verlauf_25-2" data-name="Unbenannter Verlauf 25" cx="675.17" cy="33.64" fx="675.17" fy="-101.06" gradientTransform="translate(-390.86 715.22) scale(1.58 .24)" xlink:href="#Unbenannter_Verlauf_25"/>
  </defs>
  <rect class="cls-4" width="1366" height="768"/>
  <g class="cls-8">
    <g>
      <polygon class="cls-1" points="-142 -11.5 1508 -11.5 1366 207 0 207 -142 -11.5"/>
      <line class="cls-1" x1="-20.17" y1="175.96" x2="1386.17" y2="175.96"/>
      <line class="cls-1" x1="-41.57" y1="143.03" x2="1407.57" y2="143.03"/>
      <line class="cls-1" x1="-64.31" y1="108.04" x2="1430.31" y2="108.04"/>
      <line class="cls-1" x1="-88.53" y1="70.77" x2="1454.53" y2="70.77"/>
      <line class="cls-1" x1="-114.37" y1="31.01" x2="1480.37" y2="31.01"/>
      <line class="cls-1" x1="1324.67" y1="-11.5" x2="1214.22" y2="207"/>
      <line class="cls-1" x1="1141.33" y1="-11.5" x2="1062.44" y2="207"/>
      <line class="cls-1" x1="958" y1="-11.5" x2="910.67" y2="207"/>
      <line class="cls-1" x1="774.67" y1="-11.5" x2="758.89" y2="207"/>
      <line class="cls-1" x1="591.33" y1="-11.5" x2="607.11" y2="207"/>
      <line class="cls-1" x1="408" y1="-11.5" x2="455.33" y2="207"/>
      <line class="cls-1" x1="224.67" y1="-11.5" x2="303.56" y2="207"/>
      <line class="cls-1" x1="41.33" y1="-11.5" x2="151.78" y2="207"/>
    </g>
  </g>
  <g class="cls-7">
    <g>
      <polygon class="cls-1" points="1508 779 -142 779 0 560.5 1366 560.5 1508 779"/>
      <line class="cls-1" x1="1386.17" y1="591.54" x2="-20.17" y2="591.54"/>
      <line class="cls-1" x1="1407.57" y1="624.47" x2="-41.57" y2="624.47"/>
      <line class="cls-1" x1="1430.31" y1="659.46" x2="-64.31" y2="659.46"/>
      <line class="cls-1" x1="1454.53" y1="696.73" x2="-88.53" y2="696.73"/>
      <line class="cls-1" x1="1480.37" y1="736.49" x2="-114.37" y2="736.49"/>
      <line class="cls-1" x1="41.33" y1="779" x2="151.78" y2="560.5"/>
      <line class="cls-1" x1="224.67" y1="779" x2="303.56" y2="560.5"/>
      <line class="cls-1" x1="408" y1="779" x2="455.33" y2="560.5"/>
      <line class="cls-1" x1="591.33" y1="779" x2="607.11" y2="560.5"/>
      <line class="cls-1" x1="774.67" y1="779" x2="758.89" y2="560.5"/>
      <line class="cls-1" x1="958" y1="779" x2="910.67" y2="560.5"/>
      <line class="cls-1" x1="1141.33" y1="779" x2="1062.44" y2="560.5"/>
      <line class="cls-1" x1="1324.67" y1="779" x2="1214.22" y2="560.5"/>
    </g>
  </g>
  <rect class="cls-3" x="-4" y="-56" width="1374" height="222"/>
  <rect class="cls-6" x="-14" y="602" width="1374" height="222" transform="translate(1346 1426) rotate(180)"/>
</svg>